<svg id="Layer_1" data-name="Layer 1" xmlns="http://www.w3.org/2000/svg" viewBox="0 0 486 192.24"><defs><style>.cls-1{font-size:39.32px;font-family:Montserrat-ExtraBold, Montserrat;font-weight:800;}.cls-1,.cls-12{fill:#2d337b;}.cls-2{letter-spacing:0em;}.cls-3{letter-spacing:-0.02em;}.cls-4{letter-spacing:0em;}.cls-5{letter-spacing:0.01em;}.cls-6{letter-spacing:0em;}.cls-7{letter-spacing:-0.02em;}.cls-8{letter-spacing:0em;}.cls-9{letter-spacing:0em;}.cls-10{fill:#fdc216;}.cls-11{fill:#5dc6cc;}</style></defs><title>otondo</title><text class="cls-1" transform="translate(12.75 162.18)"><tspan class="cls-2">O</tspan><tspan class="cls-3" x="33.46" y="0">t</tspan><tspan class="cls-4" x="50.41" y="0">o</tspan><tspan class="cls-5" x="76.6" y="0">n</tspan><tspan x="104.24" y="0">do </tspan><tspan class="cls-6" x="169.31" y="0">L</tspan><tspan class="cls-7" x="193.22" y="0">e</tspan><tspan class="cls-8" x="217.87" y="0">a</tspan><tspan class="cls-9" x="242.56" y="0">r</tspan><tspan class="cls-8" x="259.91" y="0">ni</tspan><tspan class="cls-5" x="299.58" y="0">n</tspan><tspan x="327.22" y="0">g Hub</tspan></text><circle class="cls-10" cx="240.69" cy="35.8" r="11.32"/><circle class="cls-10" cx="207.27" cy="49.94" r="10.17"/><circle class="cls-10" cx="274.79" cy="49.94" r="10.17"/><path class="cls-11" d="M276.25,76.91a64.38,64.38,0,0,0-8.63,1A1.61,1.61,0,0,1,266,77.2a29.19,29.19,0,0,0-49.24,0,1.6,1.6,0,0,1-1.66.72,64.33,64.33,0,0,0-8.64-1,1.59,1.59,0,0,1-1.35-2.3,40.63,40.63,0,0,1,72.53,0A1.58,1.58,0,0,1,276.25,76.91Z"/><path class="cls-11" d="M278.56,64.06a1.59,1.59,0,0,0-1.33,2.54c1.78,2.39,4.24,5.84,4.87,7.45l.63,1.61a1.6,1.6,0,0,0,1.49,1H299.4a1.59,1.59,0,0,0,1.22-2.62c-2.06-2.5-5.55-6.11-9.52-7.74S281.89,64.19,278.56,64.06Z"/><path class="cls-11" d="M202.79,64.06a1.59,1.59,0,0,1,1.33,2.54c-1.79,2.39-4.24,5.84-4.88,7.45l-.62,1.61a1.6,1.6,0,0,1-1.49,1H182a1.59,1.59,0,0,1-1.22-2.62c2.06-2.5,5.55-6.11,9.52-7.74S199.46,64.19,202.79,64.06Z"/><path class="cls-12" d="M243.48,120.84a3.78,3.78,0,0,0,3.78-3.43c0-.21,0-.44.06-.67.82-8.56,7.32-15.27,14.43-19.4,8.78-5.1,18.36-5.76,28.28-5.18,1.13.06,10.68.54,14.83.27a2.18,2.18,0,0,0,2.05-2.1,22.84,22.84,0,0,0-.13-3.58,11.2,11.2,0,0,0-.42-1.87,5.36,5.36,0,0,0-5.15-3.77h-5.37c-14.79-.72-32.13-2.27-44,8.11-1.83,1.6-4.47,4.28-6.64,6.55a5.38,5.38,0,0,1-7.77,0c-2.17-2.27-4.8-5-6.63-6.55-11.86-10.38-29.2-8.83-44-8.11h-5.37a5.36,5.36,0,0,0-5.15,3.77,10.26,10.26,0,0,0-.41,1.87,23,23,0,0,0-.14,3.58,2.19,2.19,0,0,0,2.05,2.1c4.16.27,13.7-.21,14.83-.27,9.93-.58,19.5.08,28.28,5.18,7.11,4.13,13.61,10.84,14.43,19.4,0,.23,0,.46.06.67a3.8,3.8,0,0,0,3.79,3.43h4.28Z"/></svg>