<svg id="Layer_1" data-name="Layer 1" xmlns="http://www.w3.org/2000/svg" viewBox="0 0 624.24 112.9"><defs><style>.cls-1{font-size:39.32px;font-family:Montserrat-ExtraBold, Montserrat;font-weight:800;}.cls-1,.cls-12{fill:#2d337b;}.cls-2{letter-spacing:0em;}.cls-3{letter-spacing:-0.02em;}.cls-4{letter-spacing:0em;}.cls-5{letter-spacing:0.01em;}.cls-6{letter-spacing:0em;}.cls-7{letter-spacing:-0.02em;}.cls-8{letter-spacing:0em;}.cls-9{letter-spacing:0em;}.cls-10{fill:#fdc216;}.cls-11{fill:#5dc6cc;}</style></defs><title>Artboard 5</title><text class="cls-1" transform="translate(163.46 66.65)"><tspan class="cls-2">O</tspan><tspan class="cls-3" x="33.46" y="0">t</tspan><tspan class="cls-4" x="50.41" y="0">o</tspan><tspan class="cls-5" x="76.6" y="0">n</tspan><tspan x="104.24" y="0">do </tspan><tspan class="cls-6" x="169.31" y="0">L</tspan><tspan class="cls-7" x="193.22" y="0">e</tspan><tspan class="cls-8" x="217.87" y="0">a</tspan><tspan class="cls-9" x="242.56" y="0">r</tspan><tspan class="cls-8" x="259.91" y="0">ni</tspan><tspan class="cls-5" x="299.58" y="0">n</tspan><tspan x="327.22" y="0">g Hub</tspan></text><circle class="cls-10" cx="70.2" cy="22.66" r="11.32"/><circle class="cls-10" cx="36.78" cy="36.79" r="10.17"/><circle class="cls-10" cx="104.3" cy="36.79" r="10.17"/><path class="cls-11" d="M105.76,63.77a62.78,62.78,0,0,0-8.63,1,1.6,1.6,0,0,1-1.66-.72,29.2,29.2,0,0,0-49.24,0,1.6,1.6,0,0,1-1.66.72,62.75,62.75,0,0,0-8.64-1,1.6,1.6,0,0,1-1.35-2.31,40.64,40.64,0,0,1,72.53,0A1.59,1.59,0,0,1,105.76,63.77Z"/><path class="cls-11" d="M108.07,50.92a1.58,1.58,0,0,0-1.33,2.53c1.78,2.4,4.24,5.84,4.87,7.46l.63,1.61a1.6,1.6,0,0,0,1.49,1h15.18a1.6,1.6,0,0,0,1.22-2.62c-2.06-2.5-5.55-6.11-9.52-7.74S111.4,51,108.07,50.92Z"/><path class="cls-11" d="M32.3,50.92a1.58,1.58,0,0,1,1.33,2.53c-1.79,2.4-4.24,5.84-4.88,7.46l-.62,1.61a1.6,1.6,0,0,1-1.49,1H11.46a1.6,1.6,0,0,1-1.22-2.62c2.06-2.5,5.55-6.11,9.52-7.74S29,51,32.3,50.92Z"/><path class="cls-12" d="M73,107.7a3.79,3.79,0,0,0,3.78-3.44c0-.21,0-.43.06-.67C77.65,95,84.15,88.33,91.26,84.2c8.78-5.1,18.36-5.76,28.29-5.18,1.12.06,10.67.54,14.82.27a2.18,2.18,0,0,0,2-2.1,22.8,22.8,0,0,0-.13-3.58,11,11,0,0,0-.42-1.87A5.36,5.36,0,0,0,130.72,68h-5.37c-14.79-.72-32.13-2.27-44,8.11-1.83,1.6-4.47,4.27-6.64,6.55a5.38,5.38,0,0,1-7.77,0c-2.17-2.28-4.8-4.95-6.63-6.55-11.86-10.38-29.2-8.83-44-8.11H11a5.36,5.36,0,0,0-5.15,3.77,10.08,10.08,0,0,0-.41,1.87,22.93,22.93,0,0,0-.14,3.58,2.19,2.19,0,0,0,2.05,2.1c4.16.27,13.7-.21,14.83-.27,9.93-.58,19.5.08,28.28,5.18C57.54,88.33,64.05,95,64.86,103.59c0,.24,0,.46.06.67a3.8,3.8,0,0,0,3.79,3.44H73Z"/></svg>