<svg id="Layer_1" data-name="Layer 1" xmlns="http://www.w3.org/2000/svg" viewBox="0 0 172.8 142.41"><defs><style>.cls-1{fill:#fdc216;}.cls-2{fill:#5dc6cc;}.cls-3{fill:#2d337b;}</style></defs><title>Artboard 4</title><circle class="cls-1" cx="88.57" cy="32.99" r="13.12"/><circle class="cls-1" cx="49.83" cy="49.38" r="11.79"/><circle class="cls-1" cx="128.11" cy="49.38" r="11.79"/><path class="cls-2" d="M129.81,80.66a73.73,73.73,0,0,0-10,1.16,1.83,1.83,0,0,1-1.92-.83,33.85,33.85,0,0,0-57.1,0,1.86,1.86,0,0,1-1.93.83,73.73,73.73,0,0,0-10-1.16A1.85,1.85,0,0,1,47.27,78a47.12,47.12,0,0,1,84.11,0A1.85,1.85,0,0,1,129.81,80.66Z"/><path class="cls-2" d="M132.48,65.76a1.84,1.84,0,0,0-1.54,2.94c2.07,2.78,4.92,6.77,5.65,8.65l.73,1.86a1.85,1.85,0,0,0,1.73,1.17h17.6a1.85,1.85,0,0,0,1.42-3c-2.4-2.9-6.44-7.09-11-9S136.34,65.91,132.48,65.76Z"/><path class="cls-2" d="M44.63,65.76a1.84,1.84,0,0,1,1.54,2.94c-2.07,2.78-4.92,6.77-5.65,8.65l-.73,1.86a1.84,1.84,0,0,1-1.72,1.17H20.46a1.85,1.85,0,0,1-1.42-3c2.4-2.9,6.44-7.09,11-9S40.77,65.91,44.63,65.76Z"/><path class="cls-3" d="M91.8,131.6a4.39,4.39,0,0,0,4.39-4c0-.25,0-.51.08-.78.94-9.92,8.48-17.7,16.73-22.49,10.17-5.92,21.28-6.68,32.79-6,1.3.08,12.37.63,17.19.32a2.54,2.54,0,0,0,2.38-2.44,25.63,25.63,0,0,0-.16-4.15,12.57,12.57,0,0,0-.48-2.17,6.22,6.22,0,0,0-6-4.37h-6.22c-17.16-.84-37.26-2.63-51,9.4-2.12,1.86-5.17,5-7.69,7.6a6.25,6.25,0,0,1-9,0c-2.52-2.64-5.57-5.74-7.69-7.6-13.75-12-33.86-10.24-51-9.4H19.89a6.23,6.23,0,0,0-6,4.37,13.58,13.58,0,0,0-.48,2.17,25.51,25.51,0,0,0-.15,4.15,2.54,2.54,0,0,0,2.38,2.44c4.81.31,15.88-.24,17.19-.32,11.51-.67,22.61.09,32.79,6,8.25,4.79,15.79,12.57,16.73,22.49,0,.27.05.53.07.78a4.41,4.41,0,0,0,4.39,4h5Z"/></svg>